:SAMPLES-PER-SECOND 30
:FRAME-RANGE 1-2045
:FULLY-SPECIFIED
:DEGREES
1406
root  10.4971 36.1692 60.925 138.756 85.2861 136.636
RightUpLeg  -20.0574 -28.3607 0.772989
RightLeg  51.248 -7.86985 -10.7407
RightFoot  -27.3342 1.23759 10.1126
RightToes  5.82063e-011 0 -3.6325e-017
Spine  22.0457 -0.504279 0.615066
Spine1  -1.40409 1.2352 -10.9287
HEad  -9.98795 28.4719 -13.2845
LeftShoulder1  2.34424 -4.04829 -24.8592
LeftArm  15.6408 -29.1235 -58.1897
LeftForeArm  -22.4652 -33.7364 -8.66396
LeftHand  0.242046 3.25258 -14.6402
RightShoulder  4.12327 20.1049 10.1118
RightArm  1.8967 16.5521 6.78206
RightForeArm  -46.5993 49.3883 15.5949
RightHand  -0.345225 -6.83934 22.2085
LeftUpLeg  -39.1057 16.0308 0.294092
LeftLeg  45.0094 5.59544 6.37117
LeftFoot  -11.2634 0.0746097 -10.7221
LeftToes  -3.90176e-010 -2.48536e-010 1.05482e-011
1407
root  12.2259 36.7167 61.7778 118.227 86.8856 116.106
RightUpLeg  -17.6277 -27.9022 1.13005
RightLeg  51.6199 -7.12806 -9.91285
RightFoot  -22.6793 1.16751 13.2647
RightToes  5.82063e-011 0 -3.6325e-017
Spine  21.4757 0.0703056 0.315565
Spine1  -1.37601 2.41722 -13.654
HEad  -10.1563 31.9333 -13.5408
LeftShoulder1  2.34153 -4.08758 -24.6539
LeftArm  11.8873 -28.3966 -56.3024
LeftForeArm  -21.8859 -33.3785 -8.53559
LeftHand  0.264041 3.13207 -14.9463
RightShoulder  4.07346 22.1385 8.32608
RightArm  5.27827 17.5829 7.93741
RightForeArm  -47.8967 48.7387 15.2952
RightHand  -0.393932 -7.06061 22.4361
LeftUpLeg  -39.4454 17.4324 -4.82626
LeftLeg  31.116 5.79823 4.11683
LeftFoot  -8.24568 0.390186 -12.577
LeftToes  -3.90176e-010 -2.48536e-010 1.05482e-011
1408
root  14.1074 36.8077 62.4503 42.8267 87.3768 41.4077
RightUpLeg  -17.0132 -27.5184 1.05317
RightLeg  56.8562 -5.86831 -10.0197
RightFoot  -15.8048 0.608829 18.2503
RightToes  5.82063e-011 0 -3.6325e-017
Spine  20.1577 0.520328 1.24462
Spine1  -0.54608 3.87414 -16.5866
HEad  -10.6491 36.8832 -14.6541
LeftShoulder1  2.3048 -3.98267 -24.5921
LeftArm  7.53442 -27.5717 -52.902
LeftForeArm  -21.5725 -33.4176 -8.53259
LeftHand  0.256663 3.25787 -15.4954
RightShoulder  4.2735 24.9602 7.3122
RightArm  7.66915 19.4609 9.40168
RightForeArm  -49.2037 47.1636 14.5579
RightHand  -0.398056 -7.09044 22.3148
LeftUpLeg  -38.4305 19.1126 -7.87545
LeftLeg  21.7871 0.146612 0.400942
LeftFoot  -6.65779 0.76811 -17.6909
LeftToes  -3.90176e-010 -2.48536e-010 1.05482e-011
1409
root  16.0948 36.5609 63.0194 1.77618 83.7774 2.56909
RightUpLeg  -17.7102 -27.4739 0.0163315
RightLeg  65.8725 -4.64729 -11.8714
RightFoot  -3.86474 -1.13101 16.7925
RightToes  5.82063e-011 0 -3.6325e-017
Spine  19.8241 0.987652 2.48766
Spine1  -0.228905 4.99153 -18.2484
HEad  -10.3242 43.6633 -16.0058
LeftShoulder1  2.1637 -3.58638 -24.3071
LeftArm  3.70128 -26.2661 -49.7802
LeftForeArm  -22.4906 -32.5115 -8.31865
LeftHand  0.22734 3.5006 -15.8185
RightShoulder  4.71925 28.1576 7.13825
RightArm  9.26208 22.4026 10.8709
RightForeArm  -50.6681 44.303 13.319
RightHand  -0.327426 -6.74976 22.2395
LeftUpLeg  -34.5471 16.1119 -5.41667
LeftLeg  18.2771 -5.32219 -2.52028
LeftFoot  -7.09756 0.882876 -22.4308
LeftToes  -3.90176e-010 -2.48536e-010 1.05482e-011
1410
root  18.0394 35.686 63.4148 -0.667175 79.8771 3.26398
RightUpLeg  -19.9722 -26.8318 -2.73448
RightLeg  76.3285 -3.0469 -15.6056
RightFoot  4.7676 -0.542796 4.06429
RightToes  5.82063e-011 0 -3.6325e-017
Spine  20.9856 1.50741 2.22958
Spine1  -0.840006 5.58379 -19.3283
HEad  -9.40067 50.4224 -16.9356
LeftShoulder1  2.09115 -3.29067 -24.5781
LeftArm  2.43508 -25.9425 -47.777
LeftForeArm  -24.0069 -30.1344 -7.74186
LeftHand  0.344318 2.79227 -16.4747
RightShoulder  5.34396 30.8264 7.82021
RightArm  9.16835 24.4047 11.1337
RightForeArm  -50.8185 42.346 12.5314
RightHand  -0.267733 -6.47232 21.9432
LeftUpLeg  -32.1519 7.6168 -3.91524
LeftLeg  22.2829 -8.94579 -3.71769
LeftFoot  15.2842 -0.771397 2.86132
LeftToes  -3.90176e-010 -2.48536e-010 1.05482e-011
1411
root  19.7374 34.8094 63.9614 4.69379 77.8915 11.4838
RightUpLeg  -23.3106 -24.649 -6.30731
RightLeg  83.9526 -0.842447 -15.4244
RightFoot  -0.275419 -0.452988 4.65334
RightToes  5.82063e-011 0 -3.6325e-017
Spine  23.7789 2.26763 -0.749773
Spine1  -2.37999 5.04734 -17.3532
HEad  -13.16 55.2688 -20.53
LeftShoulder1  2.12953 -3.30287 -25.1103
LeftArm  2.65329 -28.4444 -47.0231
LeftForeArm  -26.4277 -28.1691 -7.33627
LeftHand  0.312162 3.01321 -16.5286
RightShoulder  5.26628 30.7421 7.61307
RightArm  6.26709 26.2262 10.9744
RightForeArm  -49.5107 42.6331 12.6152
RightHand  -0.2545 -6.46106 20.9217
LeftUpLeg  -33.8975 -1.04419 -2.0724
LeftLeg  36.8632 0.39829 0.703512
LeftFoot  5.43954 -0.0725572 0.26788
LeftToes  -3.90176e-010 -2.48536e-010 1.05482e-011
1412
root  21.2081 34.2426 64.4971 5.78143 77.8428 14.2723
RightUpLeg  -27.9872 -21.9794 -7.25593
RightLeg  85.7088 -0.253607 -13.1418
RightFoot  -4.28052 -0.400992 6.02034
RightToes  5.82063e-011 0 -3.6325e-017
Spine  24.9239 2.14639 -1.25167
Spine1  -0.765389 4.98131 -16.8696
HEad  -18.8325 57.9402 -25.8475
LeftShoulder1  2.30618 -3.7134 -25.8096
LeftArm  4.55708 -33.4256 -47.4915
LeftForeArm  -28.0106 -25.9 -6.84098
LeftHand  0.344199 2.76071 -16.2576
RightShoulder  5.22877 30.105 7.82557
RightArm  1.7164 28.1113 9.77138
RightForeArm  -47.7708 39.9677 11.5744
RightHand  -0.0752934 -5.51562 21.7096
LeftUpLeg  -33.9011 -1.3334 -2.2789
LeftLeg  45.0637 0.222947 0.666017
LeftFoot  0.182936 -0.0338589 0.324662
LeftToes  -3.90176e-010 -2.48536e-010 1.05482e-011
1413
root  22.4384 34.0483 65.1948 4.14429 77.7234 11.9016
RightUpLeg  -34.6226 -17.7759 -5.05287
RightLeg  81.5071 -1.1958 -12.6841
RightFoot  -6.47057 -0.337013 6.87898
RightToes  5.82063e-011 0 -3.6325e-017
Spine  25.0001 1.72689 -1.43301
Spine1  -0.1778 4.81858 -17.0993
HEad  -22.3285 60.7533 -30.3923
LeftShoulder1  2.38332 -3.86061 -26.2356
LeftArm  5.91153 -37.5142 -48.0444
LeftForeArm  -29.0005 -24.7193 -6.59846
LeftHand  0.356895 2.61176 -15.8606
RightShoulder  5.46625 30.6736 8.29665
RightArm  -2.35624 28.5492 8.77643
RightForeArm  -47.2084 36.6215 10.4268
RightHand  0.132566 -4.46688 21.7137
LeftUpLeg  -34.6505 1.52063 -1.30219
LeftLeg  49.6763 -1.38852 -1.2849
LeftFoot  -3.76985 -0.040675 0.95832
LeftToes  -3.90176e-010 -2.48536e-010 1.05482e-011
1414
root  23.4074 34.0271 65.898 4.38745 81.3438 10.2607
RightUpLeg  -39.5281 -14.2364 -3.92432
RightLeg  71.9177 -2.87481 -10.746
RightFoot  -6.62554 -0.407339 8.77874
RightToes  5.82063e-011 0 -3.6325e-017
Spine  26.3456 0.410754 -1.72499
Spine1  -1.3999 2.69586 -14.5076
HEad  -25.4359 61.8197 -33.8806
LeftShoulder1  2.48124 -4.08376 -26.5885
LeftArm  8.7645 -41.2513 -49.5217
LeftForeArm  -29.2015 -23.804 -6.45435
LeftHand  0.388366 2.29597 -15.3218
RightShoulder  5.62076 29.9129 9.22684
RightArm  -5.38945 27.7583 7.77327
RightForeArm  -46.962 35.3461 10.019
RightHand  0.283817 -3.71121 21.8309
LeftUpLeg  -37.0115 0.354184 0.0168731
LeftLeg  53.0143 -3.06608 -3.87961
LeftFoot  -4.49399 0.0498976 -0.381824
LeftToes  -3.90176e-010 -2.48536e-010 1.05482e-011
1415
root  24.1311 34.086 66.6621 -2.10571 86.5788 1.90118
RightUpLeg  -40.9636 -7.94316 -5.53184
RightLeg  56.8961 -1.46307 -2.86805
RightFoot  -4.59942 -0.765102 12.4099
RightToes  5.82063e-011 0 -3.6325e-017
Spine  28.9458 -0.457921 -1.58514
Spine1  -2.58215 0.678548 -10.5999
HEad  -28.9264 60.3835 -37.6416
LeftShoulder1  2.63284 -4.62187 -26.2806
LeftArm  13.287 -45.1694 -53.2931
LeftForeArm  -28.7094 -23.068 -6.58776
LeftHand  0.43104 1.87406 -14.7789
RightShoulder  5.1059 26.7313 9.36533
RightArm  -7.74832 25.7612 6.3728
RightForeArm  -45.959 37.4348 10.6598
RightHand  0.254041 -3.89127 22.3082
LeftUpLeg  -39.8756 -1.98672 1.94092
LeftLeg  55.5241 -4.6498 -6.75147
LeftFoot  -3.18588 0.168347 -2.09285
LeftToes  -3.90176e-010 -2.48536e-010 1.05482e-011
1416
root  24.797 34.1057 67.6243 -170.828 86.7965 -168.492
RightUpLeg  -40.0831 3.64918 -12.2012
RightLeg  40.3667 4.79942 4.08209
RightFoot  -1.05663 -1.56534 17.1936
RightToes  5.82063e-011 0 -3.6325e-017
Spine  31.834 -1.17956 -2.23077
Spine1  -3.0553 -0.939193 -7.19889
HEad  -32.1804 57.6699 -41.3619
LeftShoulder1  2.74578 -5.30882 -24.9875
LeftArm  19.6725 -48.5451 -59.3853
LeftForeArm  -28.2003 -22.7752 -6.70983
LeftHand  0.448905 1.55969 -14.0321
RightShoulder  4.35929 22.4696 9.32151
RightArm  -10.2276 22.5137 4.56099
RightForeArm  -44.9817 41.6359 12.1164
RightHand  0.127463 -4.52182 22.5483
LeftUpLeg  -42.3475 -4.6476 3.37676
LeftLeg  56.945 -6.51247 -10.1513
LeftFoot  -2.46409 0.267521 -3.25575
LeftToes  -3.90176e-010 -2.48536e-010 1.05482e-011
1417
root  25.6433 33.9333 68.7772 -174.955 78.6521 -174.709
RightUpLeg  -40.2264 16.1596 -22.0278
RightLeg  29.5675 8.66095 5.0568
RightFoot  1.81321 -2.89341 24.8376
RightToes  5.82063e-011 0 -3.6325e-017
Spine  33.5065 -2.0585 -3.27714
Spine1  -2.98281 -2.59198 -3.36098
HEad  -34.7246 55.1728 -44.5592
LeftShoulder1  2.76525 -5.81235 -23.4402
LeftArm  27.2266 -50.2947 -66.5752
LeftForeArm  -28.674 -23.1145 -6.60999
LeftHand  0.452416 1.4477 -13.7114
RightShoulder  3.74707 18.2835 9.83737
RightArm  -12.1836 18.4837 2.66209
RightForeArm  -43.9149 46.3877 14.0584
RightHand  -0.0462616 -5.36586 22.5782
LeftUpLeg  -45.1191 -7.24968 4.5332
LeftLeg  58.1973 -8.49584 -13.9429
LeftFoot  -3.55751 0.184741 -2.40132
LeftToes  -3.90176e-010 -2.48536e-010 1.05482e-011
1418
root  26.5599 33.6616 69.9662 -174.091 69.2828 -175.679
RightUpLeg  -39.3789 17.0785 -24.5908
RightLeg  30.2274 6.04208 3.5615
RightFoot  -4.89359 -1.72825 29.4576
RightToes  5.82063e-011 0 -3.6325e-017
Spine  34.4922 -2.91025 -3.49722
Spine1  -2.58799 -4.60149 2.07349
HEad  -34.4674 53.4868 -45.1778
LeftShoulder1  2.75308 -6.23812 -21.936
LeftArm  34.9977 -50.477 -73.7299
LeftForeArm  -30.2923 -23.3272 -6.63212
LeftHand  0.39429 1.79709 -13.2499
RightShoulder  3.20408 14.2775 10.79
RightArm  -13.3795 14.8132 1.45779
RightForeArm  -43.6974 49.4475 15.543
RightHand  -0.192232 -6.06253 22.8901
LeftUpLeg  -47.7157 -9.06035 5.04701
LeftLeg  58.2409 -8.51115 -13.993
LeftFoot  -5.52839 0.113257 -1.57627
LeftToes  -3.90176e-010 -2.48536e-010 1.05482e-011
